<svg xmlns="http://www.w3.org/2000/svg" xmlns:xlink="http://www.w3.org/1999/xlink" width="10" height="12" viewBox="0 0 10 12"><defs><path id="72qwa" d="M1433.24 501.7c-.93-1.07-.78-2.92-.76-3.1.06-1.33.68-1.97 1.2-2.26.5-.3 1.03-.34 1.3-.34h.05c.49 0 .93.13 1.3.35.51.3 1.13.93 1.19 2.25.01.18.17 2.03-.77 3.1-.42.5-1 .75-1.71.76h-.03-.05a2.22 2.22 0 0 1-1.72-.75zm.5-.44c.3.35.7.53 1.24.53h.02c.55 0 .96-.18 1.26-.53.78-.89.6-2.58.6-2.6v-.02c-.07-1.68-1.2-1.95-1.85-1.97h-.03c-.53 0-1.77.2-1.85 1.97v.02c0 .02-.17 1.72.6 2.6zm6.14 5.4a.33.33 0 0 1-.12.15c-.08.05-1.83 1.19-4.76 1.19a9.08 9.08 0 0 1-4.75-1.19.32.32 0 0 1-.13-.16c-.12-.33-.12-1-.12-1.12v-.01-.06c.02-.5.05-1.64 1.1-2.01l.03-.01a6.89 6.89 0 0 0 2.02-.94c.15-.1.35-.07.46.08.1.15.07.36-.08.47-.04.03-1.01.72-2.22 1.04-.57.2-.63.82-.65 1.39v.06c0 .22 0 .57.05.77.4.23 1.95 1.02 4.3 1.02 2.34 0 3.89-.8 4.28-1.02.04-.2.06-.54.05-.77v-.06c-.02-.57-.08-1.19-.65-1.4-1.2-.31-2.18-1-2.22-1.03a.34.34 0 0 1-.08-.46c.1-.16.31-.2.46-.09 0 .01.92.66 2.02.94l.02.01c1.06.37 1.1 1.52 1.1 2.01V505.53c.01.13.01.8-.1 1.12z"/></defs><g><g opacity=".3" transform="translate(-1430 -496)"><use xlink:href="#72qwa"/></g></g></svg>