<svg xmlns="http://www.w3.org/2000/svg" xmlns:xlink="http://www.w3.org/1999/xlink" width="141" height="158" viewBox="0 0 141 158"><defs><path id="nzn0a" d="M643.69 3053.63l-73.62 44.99a9.36 9.36 0 0 1-9.34.23 8.95 8.95 0 0 1-4.74-7.87v-89.96c0-3.27 1.82-6.3 4.74-7.87a9.35 9.35 0 0 1 9.34.23l73.62 44.99A8.97 8.97 0 0 1 648 3046c0 3.1-1.63 6-4.32 7.63z"/><mask id="nzn0c" width="2" height="2" x="-1" y="-1"><path fill="#fff" d="M556 2992h93v108h-93z"/><use xlink:href="#nzn0a"/></mask><filter id="nzn0b" width="177" height="203" x="514" y="2950" filterUnits="userSpaceOnUse"><feOffset dy="11" in="SourceGraphic" result="FeOffset1023Out"/><feGaussianBlur in="FeOffset1023Out" result="FeGaussianBlur1024Out" stdDeviation="12.8 12.8"/></filter></defs><g><g transform="translate(-532 -2978)"><g filter="url(#nzn0b)"><use fill="none" stroke-opacity=".23" stroke-width="0" mask="url(&quot;#nzn0c&quot;)" xlink:href="#nzn0a"/><use fill-opacity=".23" xlink:href="#nzn0a"/></g><use fill="#2d90f5" xlink:href="#nzn0a"/></g></g></svg>