<svg xmlns="http://www.w3.org/2000/svg" xmlns:xlink="http://www.w3.org/1999/xlink" width="8" height="8" viewBox="0 0 8 8"><defs><path id="sqj2a" d="M649.87 13530.88a.44.44 0 0 1-.3.12.44.44 0 0 1-.31-.13l-2-2a3.4 3.4 0 0 1-1.91.59 3.3 3.3 0 0 1-3.35-3.23 3.3 3.3 0 0 1 3.35-3.23 3.3 3.3 0 0 1 3.35 3.23c0 .76-.28 1.5-.79 2.08l1.97 1.98c.17.16.17.43 0 .6zm-7-4.65a2.43 2.43 0 0 0 2.48 2.39 2.43 2.43 0 0 0 2.47-2.4 2.43 2.43 0 0 0-2.47-2.38 2.43 2.43 0 0 0-2.48 2.39z"/></defs><g><g opacity=".4" transform="translate(-642 -13523)"><use fill="#181818" xlink:href="#sqj2a"/></g></g></svg>