<svg xmlns="http://www.w3.org/2000/svg" xmlns:xlink="http://www.w3.org/1999/xlink" width="15" height="18" viewBox="0 0 15 18"><defs><path id="rcn3a" d="M716 3476.21a7.14 7.14 0 0 1-.69 3.02c-.8 1.83-2.58 4.64-6.48 7.66a.55.55 0 0 1-.66 0c-3.9-3.02-5.68-5.83-6.48-7.66a6.93 6.93 0 0 1-.69-3.02c0-3.97 3.36-7.21 7.5-7.21 4.13 0 7.5 3.24 7.5 7.21zm-1.07 0c0-3.41-2.89-6.2-6.43-6.2a6.33 6.33 0 0 0-6.44 6.2c0 .4.04.79.12 1.18v.02l.04.17c.1.43.24.84.43 1.23v.02c.74 1.67 2.35 4.22 5.85 7 3.5-2.78 5.1-5.33 5.83-7l.01-.02c.2-.4.34-.8.44-1.23l.03-.17v-.02c.08-.38.12-.78.12-1.18zm-1.67.08a4.68 4.68 0 0 1-4.76 4.59 4.68 4.68 0 0 1-4.76-4.59 4.68 4.68 0 0 1 4.76-4.58 4.68 4.68 0 0 1 4.76 4.58zm-1.06 0a3.64 3.64 0 0 0-3.7-3.56c-2.04 0-3.7 1.6-3.7 3.56a3.64 3.64 0 0 0 3.7 3.57c2.04 0 3.7-1.6 3.7-3.57z"/></defs><g><g opacity=".22" transform="translate(-701 -3469)"><use fill="#fff" xlink:href="#rcn3a"/></g></g></svg>