<svg xmlns="http://www.w3.org/2000/svg" xmlns:xlink="http://www.w3.org/1999/xlink" width="12" height="12" viewBox="0 0 12 12"><defs><path id="3007a" d="M1699.89 78.82c.25.26.39.56.39.87 0 .32-.14.62-.39.88l-.33.33c-.16.15-.31.3-.44.46h-.01a1.92 1.92 0 0 1-1.63.63 6.2 6.2 0 0 1-2.23-.66 11.96 11.96 0 0 1-3.99-3.1 10.9 10.9 0 0 1-1.94-3.25 4.44 4.44 0 0 1-.33-1.88c.04-.46.23-.85.56-1.18l.86-.87c.26-.25.56-.37.87-.37.3 0 .6.12.85.37.17.15.33.31.48.47l.23.24.7.7c.53.53.53 1.22 0 1.75l-.22.21c-.18.2-.38.4-.59.58.16.34.37.68.7 1.08a8.78 8.78 0 0 0 2.33 2.04l.2.1.8-.8c.26-.25.56-.39.87-.39.32 0 .61.14.86.4zm-.5.48l-1.4-1.4c-.08-.09-.2-.19-.36-.19-.16 0-.3.1-.39.2l-.87.86a.54.54 0 0 1-.38.17.55.55 0 0 1-.25-.06l-.03-.01a3.22 3.22 0 0 0-.26-.14c-.1-.05-.2-.1-.3-.17a9.3 9.3 0 0 1-2.27-2.05 5.6 5.6 0 0 1-.83-1.36c-.04-.14-.08-.36.14-.58a13.95 13.95 0 0 0 .86-.85c.27-.26.27-.51 0-.78l-.69-.7-.24-.24a11.93 11.93 0 0 0-.47-.46c-.08-.08-.2-.18-.37-.18a.59.59 0 0 0-.38.18l-.87.87c-.21.2-.32.45-.35.75-.04.46.05.95.28 1.59.39 1.03.97 2 1.83 3.04a11.27 11.27 0 0 0 3.76 2.93 5.53 5.53 0 0 0 2.1.6c.4 0 .7-.13.95-.4.16-.2.33-.36.49-.51l.31-.31c.26-.27.26-.54 0-.8zm-4.19-6.86c.04-.18.21-.3.4-.28a3.92 3.92 0 0 1 3.22 3.22c.03.19-.1.36-.28.4h-.06a.34.34 0 0 1-.34-.28 3.24 3.24 0 0 0-2.66-2.66.34.34 0 0 1-.28-.4zm5.52 3.23h-.06a.34.34 0 0 1-.33-.28 5.76 5.76 0 0 0-4.74-4.73.34.34 0 1 1 .11-.67 6.46 6.46 0 0 1 5.3 5.3c.03.18-.1.36-.28.38z"/></defs><g><g opacity=".3" transform="translate(-1689 -70)"><use xlink:href="#3007a"/></g></g></svg>