<svg xmlns="http://www.w3.org/2000/svg" xmlns:xlink="http://www.w3.org/1999/xlink" width="17" height="15" viewBox="0 0 17 15"><defs><path id="6a3ya" d="M969.8 3402.45l-1.72 1.79a1.95 1.95 0 0 1-2.8 0l-1.72-1.75a.72.72 0 0 1-.01-.98.64.64 0 0 1 .94-.01l1.53 1.56v-2.56a5.99 5.99 0 0 0-5.85-6.11 5.64 5.64 0 0 0-3.26 1.04.64.64 0 0 1-.37.11.66.66 0 0 1-.55-.3.71.71 0 0 1 .18-.97l.46-.3.12-.07h.02l.02-.02h.01a6.93 6.93 0 0 1 8.44 1.32 7.63 7.63 0 0 1 2.1 5.3v2.54l1.53-1.58a.64.64 0 0 1 .94.01c.26.27.25.71 0 .98zm-15.46-2.32a6.55 6.55 0 0 0 0 .62c0 .38-.28.7-.64.72h-.03a.68.68 0 0 1-.66-.66 8.18 8.18 0 0 1 0-.77.68.68 0 0 1 .7-.65c.37.02.65.35.63.74zm.63 4.52c-.1.07-.23.1-.34.1a.66.66 0 0 1-.57-.32 7.56 7.56 0 0 1-.35-.68.7.7 0 0 1 .3-.92.65.65 0 0 1 .9.32c.08.19.18.37.28.55.2.32.1.75-.22.95zm5.87 2.65c0 .39-.3.7-.67.7-.24 0-.49-.01-.73-.04a.69.69 0 0 1-.6-.76.67.67 0 0 1 .74-.62l.6.03c.36 0 .66.31.66.7zm-3.27-.52a.66.66 0 0 1-.58.35.63.63 0 0 1-.32-.08 6.98 6.98 0 0 1-.62-.41.71.71 0 0 1-.16-.97.65.65 0 0 1 .92-.17l.5.33c.33.2.44.61.26.95zm-2.32-9.58l-.3.54a.66.66 0 0 1-.58.38c-.1 0-.2-.03-.3-.08a.71.71 0 0 1-.3-.93c.11-.23.24-.45.37-.67.2-.32.6-.41.92-.2.3.2.4.63.2.96z"/></defs><g><g transform="translate(-953 -3393)"><use fill="#2d90f5" xlink:href="#6a3ya"/></g></g></svg>