<svg xmlns="http://www.w3.org/2000/svg" xmlns:xlink="http://www.w3.org/1999/xlink" width="16" height="16" viewBox="0 0 16 16"><defs><path id="wumta" d="M425.637 670.14c-1.509-1.38-3.51-2.14-5.637-2.14s-4.128.76-5.637 2.14c-1.524 1.395-2.363 3.254-2.363 5.235 0 1.543.505 3.007 1.465 4.255l-1.42 3.51a.625.625 0 0 0 .832.805l4.02-1.772a8.508 8.508 0 0 0 3.103.576 8.539 8.539 0 0 0 3.856-.912.624.624 0 1 0-.566-1.114c-1 .507-2.137.776-3.29.776a7.265 7.265 0 0 1-2.867-.579.623.623 0 0 0-.497.003l-2.855 1.258.98-2.424a.624.624 0 0 0-.103-.64c-.921-1.08-1.408-2.375-1.408-3.742 0-3.378 3.028-6.126 6.75-6.126s6.75 2.748 6.75 6.126a5.693 5.693 0 0 1-1.044 3.271.625.625 0 1 0 1.025.716 6.937 6.937 0 0 0 1.269-3.987c0-1.98-.84-3.84-2.363-5.235z"/></defs><g><g transform="translate(-412 -668)"><use fill="#0089ff" xlink:href="#wumta"/></g></g></svg>