<svg xmlns="http://www.w3.org/2000/svg" xmlns:xlink="http://www.w3.org/1999/xlink" width="16" height="20" viewBox="0 0 16 20"><defs><path id="99gsa" d="M1360.99 307.1c0 .98-.82 1.8-1.82 1.8h-3.67a2.53 2.53 0 0 1-2.5 2.1 2.53 2.53 0 0 1-2.5-2.1h-3.68c-1 0-1.82-.82-1.82-1.8 0-.5.22-1 .6-1.33.42-.39.67-.94.67-1.5v-4.52a6.68 6.68 0 0 1 5.49-6.53c-.15-.22-.23-.49-.23-.77 0-.8.66-1.45 1.46-1.45.81 0 1.47.65 1.47 1.45 0 .28-.09.55-.23.77.65.12 1.28.34 1.87.64a2.94 2.94 0 0 1 4.9 2.14c0 1.6-1.31 2.89-2.93 2.89a2.91 2.91 0 0 1-2.93-2.89c0-.56.16-1.08.44-1.52a5.9 5.9 0 0 0-8.53 5.27v4.51c0 .8-.33 1.55-.92 2.08a1.01 1.01 0 0 0 .69 1.77h12.35c.56 0 1.03-.46 1.03-1.02 0-.28-.13-.55-.34-.75-.59-.53-.93-1.29-.93-2.08v-3.89c0-.21.18-.39.4-.39.21 0 .4.18.4.4v3.88c0 .57.24 1.12.67 1.5.37.35.59.83.59 1.33zm-5.06-11.1c0 1.16.96 2.1 2.14 2.1 1.18 0 2.14-.94 2.14-2.1 0-1.16-.96-2.1-2.14-2.1-1.18 0-2.14.94-2.14 2.1zm-3.6-3.56c0 .37.3.67.66.67.37 0 .68-.3.68-.67 0-.36-.3-.66-.68-.66-.37 0-.67.3-.67.66zm2.36 16.45h-3.4c.19.76.88 1.33 1.7 1.33.83 0 1.52-.57 1.7-1.33zm-5.73-9.15v.01a.4.4 0 0 1-.4.4.4.4 0 0 1-.4-.4.4.4 0 0 1 .4-.4c.22 0 .4.18.4.4zm4.43-4.37a.4.4 0 0 1-.4.4c-1.62 0-3.08.95-3.71 2.42a.4.4 0 0 1-.52.21.39.39 0 0 1-.21-.51 4.82 4.82 0 0 1 4.44-2.9c.22 0 .4.17.4.38zm5.07-.28v1.55a.4.4 0 0 1-.4.39.4.4 0 0 1-.4-.4v-.7a.4.4 0 0 1-.34-.11.39.39 0 0 1 0-.55l.46-.45a.4.4 0 0 1 .43-.09c.15.06.25.2.25.36z"/></defs><g><g opacity=".24" transform="translate(-1345 -291)"><use xlink:href="#99gsa"/></g></g></svg>