<svg xmlns="http://www.w3.org/2000/svg" xmlns:xlink="http://www.w3.org/1999/xlink" width="10" height="11" viewBox="0 0 10 11"><defs><path id="zj60a" d="M422.24 13185.23c-.93-.99-.78-2.68-.76-2.84.06-1.23.68-1.8 1.2-2.08.5-.27 1.03-.31 1.3-.31h.05c.49 0 .93.12 1.3.32.51.27 1.13.85 1.19 2.07.01.16.17 1.85-.77 2.84-.42.45-1 .68-1.71.7H424h-.05a2.32 2.32 0 0 1-1.72-.7zm.5-.4c.3.32.7.48 1.24.48h.02c.55 0 .96-.16 1.26-.49.78-.81.6-2.36.6-2.38v-.01c-.07-1.55-1.2-1.8-1.85-1.81h-.03c-.53 0-1.77.17-1.85 1.8v.02c0 .02-.17 1.57.6 2.38zm6.14 4.94a.31.31 0 0 1-.12.14c-.08.04-1.83 1.09-4.76 1.09a9.69 9.69 0 0 1-4.75-1.09.3.3 0 0 1-.13-.14c-.12-.3-.12-.92-.12-1.04v-.06c.02-.45.05-1.5 1.1-1.84h.03a7.15 7.15 0 0 0 2.02-.87c.15-.1.35-.06.46.08a.3.3 0 0 1-.08.42c-.04.03-1.01.66-2.22.95-.57.2-.64.76-.65 1.28v.06c0 .2 0 .52.05.7.4.21 1.95.94 4.3.94 2.34 0 3.89-.73 4.28-.94.04-.18.06-.5.05-.7v-.06c-.02-.52-.08-1.09-.65-1.27-1.2-.3-2.18-.93-2.22-.95a.3.3 0 0 1-.08-.43c.1-.14.31-.17.46-.08a7.25 7.25 0 0 0 2.04.87c1.06.34 1.1 1.4 1.1 1.84v.06c.01.13.01.73-.1 1.04z"/></defs><g><g opacity=".4" transform="translate(-419 -13180)"><use fill="#181818" xlink:href="#zj60a"/></g></g></svg>