<svg xmlns="http://www.w3.org/2000/svg" xmlns:xlink="http://www.w3.org/1999/xlink" width="12" height="12" viewBox="0 0 12 12"><defs><path id="8j58a" d="M1439.88 603.83c.26.25.4.55.4.86 0 .32-.14.62-.4.88-.1.12-.21.22-.32.33-.16.15-.32.3-.45.46v.01a1.92 1.92 0 0 1-1.63.62 6.21 6.21 0 0 1-2.24-.65 11.95 11.95 0 0 1-3.98-3.12 10.88 10.88 0 0 1-1.94-3.23 4.43 4.43 0 0 1-.33-1.88c.05-.46.23-.85.56-1.18l.86-.86c.26-.25.56-.38.87-.38.3 0 .6.13.85.37a10.78 10.78 0 0 1 .71.71l.7.7c.53.53.53 1.22 0 1.75l-.22.21c-.19.2-.38.4-.59.58.16.34.37.68.69 1.08.65.8 1.34 1.42 2.09 1.9.07.05.16.09.25.13l.2.1.8-.8c.25-.25.55-.38.87-.38.31 0 .6.13.86.39zm-.49.47l-1.4-1.4c-.08-.08-.21-.18-.37-.18s-.3.1-.38.19l-.87.87c-.04.04-.18.17-.39.17a.58.58 0 0 1-.25-.06l-.03-.02a3.26 3.26 0 0 0-.25-.13c-.1-.06-.2-.1-.31-.18a9.26 9.26 0 0 1-2.26-2.04c-.39-.5-.64-.9-.82-1.34v-.02c-.05-.15-.1-.36.12-.58h.02c.22-.2.42-.4.63-.63l.22-.22c.27-.26.27-.51 0-.78l-.7-.7-.23-.24-.46-.45a.54.54 0 0 0-.38-.19.58.58 0 0 0-.38.18l-.87.87c-.21.2-.32.45-.35.75-.04.46.05.95.28 1.59.39 1.03.97 2 1.83 3.03a11.25 11.25 0 0 0 3.75 2.93 5.52 5.52 0 0 0 2.1.6c.4 0 .7-.13.95-.4.16-.2.33-.36.5-.51l.3-.31c.26-.27.26-.54 0-.8zm-4.19-6.84c.03-.19.21-.31.4-.28a3.9 3.9 0 0 1 3.22 3.2.34.34 0 0 1-.68.13 3.23 3.23 0 0 0-2.66-2.66.34.34 0 0 1-.28-.4zm5.51 3.22h-.05a.34.34 0 0 1-.34-.28 5.78 5.78 0 0 0-4.74-4.73.34.34 0 0 1-.28-.39c.03-.19.2-.31.4-.28a6.45 6.45 0 0 1 5.3 5.29c.03.18-.1.36-.29.39z"/></defs><g><g opacity=".3" transform="translate(-1429 -595)"><use xlink:href="#8j58a"/></g></g></svg>