<svg xmlns="http://www.w3.org/2000/svg" xmlns:xlink="http://www.w3.org/1999/xlink" width="12" height="12" viewBox="0 0 12 12"><defs><path id="398ea" d="M429.88 825.7l-1.17 1.17a.4.4 0 0 1-.57 0l-2.38-2.38-.99 1.7a.4.4 0 0 1-.37.2.4.4 0 0 1-.35-.25l-3.03-7.6a.4.4 0 0 1 .52-.51l7.6 3.02c.14.06.24.2.25.35a.4.4 0 0 1-.2.37l-1.7.99 2.39 2.38a.4.4 0 0 1 0 .57zm-.85-.28l-2.48-2.47a.4.4 0 0 1 .08-.63l1.45-.83-5.97-2.37 2.38 5.95.83-1.44a.4.4 0 0 1 .35-.2c.1 0 .2.04.28.12l2.48 2.47zm-8.38-8.34a.4.4 0 1 1-.28.68.4.4 0 0 1-.29-.1l-.9-.9a.4.4 0 1 1 .57-.57zm-1 2.29h-1.25a.4.4 0 0 1 0-.8h1.26a.4.4 0 0 1 0 .8zm.81.83a.4.4 0 0 1 0 .57l-.89.9a.4.4 0 0 1-.57 0 .4.4 0 0 1 0-.58l.9-.89a.4.4 0 0 1 .56 0zm1.1-3.54v-1.26a.4.4 0 0 1 .8 0v1.26a.4.4 0 1 1-.8 0zm1.64.8a.4.4 0 0 1 0-.56l.9-.9a.4.4 0 0 1 .57.57l-.9.9a.4.4 0 0 1-.57 0z"/></defs><g><g transform="translate(-418 -815)"><use fill="#fff" xlink:href="#398ea"/></g></g></svg>