<svg xmlns="http://www.w3.org/2000/svg" xmlns:xlink="http://www.w3.org/1999/xlink" width="32" height="32" viewBox="0 0 32 32"><defs><path id="zixda" d="M1393.876 7028.693c0 .689-.56 1.248-1.25 1.248h-10.873a3.715 3.715 0 0 1-3.03-1.539 3.702 3.702 0 0 1-.54-3.351c1.12-3.473 3.868-6.197 7.258-7.465a6.344 6.344 0 0 1-2.064-4.684c0-3.508 2.86-6.363 6.374-6.363a6.384 6.384 0 0 1 5.916 3.993 11.856 11.856 0 0 1 2.72-1.476 6.342 6.342 0 0 1-2.074-4.693c0-3.509 2.86-6.364 6.374-6.364s6.374 2.855 6.374 6.364a6.342 6.342 0 0 1-2.09 4.708c.874.339 1.71.783 2.492 1.328.566.394.705 1.172.31 1.738a1.251 1.251 0 0 1-1.74.309 9.359 9.359 0 0 0-5.374-1.682 9.32 9.32 0 0 0-6.555 2.655 6.35 6.35 0 0 1-2.069 4.191c.875.339 1.71.783 2.493 1.329.566.394.705 1.171.31 1.737a1.251 1.251 0 0 1-1.74.31 9.36 9.36 0 0 0-5.374-1.683c-4.159 0-7.926 2.678-9.161 6.512-.124.384-.058.792.18 1.118.238.326.606.512 1.01.512h10.873c.69 0 1.25.56 1.25 1.248zm4.936-24.33a3.875 3.875 0 0 0 7.75 0 3.876 3.876 0 0 0-3.875-3.868 3.876 3.876 0 0 0-3.875 3.868zm-12.935 8.539a3.876 3.876 0 0 0 3.874 3.868 3.876 3.876 0 0 0 3.875-3.868 3.876 3.876 0 0 0-3.875-3.868 3.876 3.876 0 0 0-3.874 3.868zm23.888 7.219l-6.186 8.625a3.224 3.224 0 0 1-2.545 1.254c-.821 0-1.62-.316-2.217-.884l-3.992-3.828a1.245 1.245 0 0 1-.036-1.763 1.251 1.251 0 0 1 1.767-.036l3.988 3.822c.194.184.42.2.536.191a.707.707 0 0 0 .492-.243l6.16-8.59a1.25 1.25 0 0 1 1.744-.29c.561.402.69 1.181.289 1.742z"/></defs><g><g transform="translate(-1378 -6998)"><use fill="#0288fe" xlink:href="#zixda"/></g></g></svg>