<svg xmlns="http://www.w3.org/2000/svg" xmlns:xlink="http://www.w3.org/1999/xlink" width="40" height="32" viewBox="0 0 40 32"><defs><path id="zneqa" d="M458.182 7004.04c-1.594 2.353-9.607 14.155-10.867 15.423a4.66 4.66 0 0 1-3.315 1.38c-1.2 0-2.4-.46-3.315-1.38a4.745 4.745 0 0 1 0-6.672c1.26-1.268 12.988-9.332 15.326-10.936a1.556 1.556 0 0 1 1.985.187 1.58 1.58 0 0 1 .186 1.998zm-7.372 5.234c-4.096 2.865-7.425 5.255-7.915 5.742a1.581 1.581 0 0 0 0 2.223c.61.613 1.6.613 2.21 0 .484-.493 2.858-3.843 5.705-7.965zm-17.515 14.891c.378.78.056 1.722-.72 2.103l-3.203 1.572a1.555 1.555 0 0 1-1.984-.539 20.14 20.14 0 0 1-3.388-11.174c0-5.376 2.08-10.43 5.858-14.232 3.777-3.802 8.8-5.895 14.142-5.895 2.864 0 5.63.596 8.221 1.774a1.577 1.577 0 0 1 .781 2.08 1.558 1.558 0 0 1-2.067.786 16.587 16.587 0 0 0-5.372-1.424v2.366c0 .869-.7 1.572-1.563 1.572a1.567 1.567 0 0 1-1.562-1.572v-2.365c-5.43.504-10.123 3.607-12.835 8.059l2.182 1.053a1.578 1.578 0 0 1 .733 2.098 1.562 1.562 0 0 1-2.084.738l-2.21-1.067a16.998 16.998 0 0 0 1.053 14.29l1.928-.947a1.559 1.559 0 0 1 2.09.724zm30.705-8.038c0 3.973-1.172 7.837-3.389 11.174a1.559 1.559 0 0 1-1.97.546l-3.282-1.573a1.577 1.577 0 0 1-.739-2.096 1.559 1.559 0 0 1 2.083-.743l2.014.965a16.949 16.949 0 0 0 2.158-8.273c0-2.433-.5-4.781-1.486-6.98a1.576 1.576 0 0 1 .781-2.079 1.558 1.558 0 0 1 2.067.786 20.078 20.078 0 0 1 1.763 8.273z"/></defs><g><g transform="translate(-424 -6996)"><use fill="#0288fe" xlink:href="#zneqa"/></g></g></svg>