<svg xmlns="http://www.w3.org/2000/svg" xmlns:xlink="http://www.w3.org/1999/xlink" width="32" height="32" viewBox="0 0 32 32"><defs><path id="2co0a" d="M935 7003v4.75c0 2.757-2.243 5-5 5h-4.75c-2.757 0-5-2.243-5-5V7003c0-2.757 2.243-5 5-5H930c2.757 0 5 2.243 5 5zm-2.5 0c0-1.379-1.122-2.5-2.5-2.5h-4.75a2.503 2.503 0 0 0-2.5 2.5v4.75c0 1.378 1.121 2.5 2.5 2.5H930c1.378 0 2.5-1.122 2.5-2.5zm-14.75 0v4.75c0 2.757-2.243 5-5 5H908c-2.757 0-5-2.243-5-5V7003c0-2.757 2.243-5 5-5h4.75c2.757 0 5 2.243 5 5zm-2.5 0c0-1.379-1.122-2.5-2.5-2.5H908a2.503 2.503 0 0 0-2.5 2.5v4.75c0 1.378 1.121 2.5 2.5 2.5h4.75c1.378 0 2.5-1.122 2.5-2.5zm2.5 17.25v4.75c0 2.756-2.243 5-5 5H908c-2.757 0-5-2.244-5-5v-4.75c0-2.757 2.243-5 5-5h4.75c2.757 0 5 2.243 5 5zm-2.5 0c0-1.379-1.122-2.5-2.5-2.5H908a2.503 2.503 0 0 0-2.5 2.5v4.75c0 1.378 1.121 2.5 2.5 2.5h4.75c1.378 0 2.5-1.122 2.5-2.5zM935 7025c0 2.756-2.243 5-5 5h-4.75c-2.757 0-5-2.244-5-5v-4.75c0-2.757 2.243-5 5-5H930a5.003 5.003 0 0 1 4.583 2.997 1.25 1.25 0 0 1-2.29 1.002 2.502 2.502 0 0 0-2.293-1.5h-4.75a2.503 2.503 0 0 0-2.5 2.501v4.75c0 1.378 1.121 2.5 2.5 2.5H930c1.378 0 2.5-1.122 2.5-2.5a1.25 1.25 0 1 1 2.5 0z"/></defs><g><g transform="translate(-903 -6998)"><use fill="#0288fe" xlink:href="#2co0a"/></g></g></svg>