<svg xmlns="http://www.w3.org/2000/svg" xmlns:xlink="http://www.w3.org/1999/xlink" width="16" height="20" viewBox="0 0 16 20"><defs><path id="byoca" d="M426.419 795.97v-9.847c0-.862-.708-1.563-1.577-1.563h-9.692c-.869 0-1.576.7-1.576 1.563v13.753c0 .862.707 1.563 1.576 1.563h9.692c.87 0 1.577-.701 1.577-1.563 0-.432.353-.782.788-.782.435 0 .788.35.788.782 0 1.724-1.414 3.126-3.153 3.126h-9.692c-1.738 0-3.153-1.402-3.153-3.126v-13.753c0-1.724 1.415-3.126 3.153-3.126h9.692c1.739 0 3.153 1.402 3.153 3.126v9.846c0 .432-.353.781-.788.781a.784.784 0 0 1-.788-.78zm-1.577-7.503c0 .432-.353.78-.788.78h-8.12a.784.784 0 0 1-.788-.78c0-.431.353-.781.788-.781h8.12c.435 0 .788.35.788.781zm0 3.126a.786.786 0 0 1-.788.782h-8.12a.786.786 0 0 1-.788-.782c0-.432.353-.78.788-.78h8.12c.435 0 .788.348.788.78zm-3.188 3.125a.785.785 0 0 1-.788.782h-4.932a.785.785 0 0 1-.788-.782c0-.43.353-.78.788-.78h4.931c.436 0 .789.35.789.78z"/></defs><g><g transform="translate(-412 -783)"><use fill="#0089ff" xlink:href="#byoca"/></g></g></svg>