<svg xmlns="http://www.w3.org/2000/svg" xmlns:xlink="http://www.w3.org/1999/xlink" width="64" height="64" viewBox="0 0 64 64"><defs><path id="kzm6a" d="M157.249 3518.75c0 .328-.134.65-.367.883a1.258 1.258 0 0 1-.883.367c-.329 0-.652-.134-.884-.367a1.258 1.258 0 0 1-.366-.883c0-.33.133-.652.366-.884.232-.233.555-.366.884-.366.328 0 .65.133.883.366.233.232.367.555.367.884zm-11-4.674v4.674a1.25 1.25 0 1 1-2.5 0v-4.674a1.25 1.25 0 0 1 2.5 0zm0-56.826v4.673a1.25 1.25 0 1 1-2.5 0v-4.673a1.25 1.25 0 0 1 2.5 0zM120.172 3477c0 .691-.56 1.25-1.25 1.25h-4.673a1.25 1.25 0 0 1 0-2.5h4.673c.69 0 1.25.56 1.25 1.25zm0 21.998c0 .69-.56 1.25-1.25 1.25h-4.673a1.25 1.25 0 0 1 0-2.5h4.673c.69 0 1.25.56 1.25 1.25zM177 3477.001c0 .69-.56 1.25-1.25 1.25h-4.673a1.25 1.25 0 1 1 0-2.5h4.673c.69 0 1.25.56 1.25 1.25zm0 21.997c0 .69-.56 1.25-1.25 1.25h-4.673a1.25 1.25 0 1 1 0-2.5h4.673c.69 0 1.25.56 1.25 1.25zm0-11c0 .69-.56 1.25-1.25 1.25h-8v20.252c0 .69-.56 1.25-1.25 1.25h-9.251v3a1.25 1.25 0 0 1-2.5 0v-3H135.25v8a1.25 1.25 0 0 1-2.5 0v-8H123.5c-.69 0-1.25-.56-1.25-1.25v-20.252h-8a1.25 1.25 0 0 1 0-2.5h8V3466.5c0-.69.56-1.25 1.25-1.25h9.251v-3.375a1.25 1.25 0 1 1 2.5 0v3.375h19.498v-8a1.25 1.25 0 1 1 2.5 0v8h9.251c.69 0 1.25.56 1.25 1.25v20.248h8c.69 0 1.25.56 1.25 1.25zm-11.75-20.248h-40.5v40.5h40.5zm-3.5 4.75v31c0 .69-.56 1.25-1.25 1.25h-31c-.69 0-1.25-.56-1.25-1.25v-31c0-.69.56-1.25 1.25-1.25h31c.69 0 1.25.56 1.25 1.25zm-2.5 1.25h-28.5v28.5h28.5zm-23.999-16.5c0 .328-.134.65-.366.883a1.258 1.258 0 0 1-.884.367c-.329 0-.651-.134-.884-.367a1.258 1.258 0 0 1-.366-.883c0-.33.134-.652.366-.884.233-.233.555-.366.884-.366.329 0 .651.133.884.366.232.232.366.555.366.884zm18.631 29.518v9.736a3.04 3.04 0 0 1-3.037 3.037h-11.69a3.04 3.04 0 0 1-3.037-3.037v-9.736a3.041 3.041 0 0 1 2.888-3.033v-1.283a6 6 0 0 1 5.994-5.994 6 6 0 0 1 5.994 5.994v1.283a3.042 3.042 0 0 1 2.888 3.033zm-12.376-4.316v1.28h6.988v-1.28a3.498 3.498 0 0 0-3.494-3.494 3.498 3.498 0 0 0-3.494 3.494zm9.876 14.052v-9.736a.538.538 0 0 0-.537-.537h-11.69a.538.538 0 0 0-.538.537v9.736c0 .296.241.537.538.537h4.63a1.248 1.248 0 0 1-.035-.291v-3.248a1.25 1.25 0 0 1 2.5 0v3.248c0 .1-.013.197-.036.291h4.63a.538.538 0 0 0 .538-.537zm-5.132-7.192c0 .329-.134.652-.366.884a1.26 1.26 0 0 1-.884.366 1.26 1.26 0 0 1-.884-.366 1.259 1.259 0 0 1-.366-.884c0-.329.134-.65.366-.884a1.26 1.26 0 0 1 .884-.366c.329 0 .651.134.884.366.232.233.366.555.366.884z"/></defs><g><g  transform="translate(-113 -3456)"><use fill="#0089ff" xlink:href="#kzm6a"/></g></g></svg>